<svg width="856" height="991" viewBox="0 0 856 991" fill="none" xmlns="http://www.w3.org/2000/svg">
<path d="M675.231 141.429C707.222 270.799 677.034 352.153 755.338 447.612C808.046 511.866 849.257 566.76 854.781 660.97C859.201 736.338 795.616 846.642 795.616 846.642C795.616 846.642 708.603 990.706 483.251 990.706C257.899 990.706 102.053 799.514 102.053 799.514C102.053 799.514 -13.058 660.97 1.22919 464.237C13.3833 296.876 102.053 197.371 102.053 197.371C102.053 197.371 158.404 124.249 273.316 55.5315C335.692 18.2303 468.283 -24.8019 573.25 19.5321C600.873 31.1989 660.287 80.9937 675.231 141.429Z" fill="#6A8E8F"/>
</svg>
