<svg width="455" height="590" viewBox="0 0 856 991" fill="none" xmlns="http://www.w3.org/2000/svg">
<path d="M179.771 141.429C147.781 270.799 177.969 352.153 99.6645 447.612C46.9567 511.866 5.74618 566.76 0.221576 660.97C-4.19811 736.338 59.3871 846.642 59.3871 846.642C59.3871 846.642 146.4 990.706 371.752 990.706C597.103 990.706 752.95 799.514 752.95 799.514C752.95 799.514 868.061 660.97 853.774 464.237C841.62 296.876 752.95 197.371 752.95 197.371C752.95 197.371 696.599 124.249 581.687 55.5315C519.311 18.2303 386.72 -24.8019 281.753 19.5321C254.13 31.1989 194.716 80.9937 179.771 141.429Z" fill="#C7C7C7"/>
</svg>
